<svg width="80" height="80" viewBox="0 0 80 80" fill="none" xmlns="http://www.w3.org/2000/svg">
<mask id="path-1-inside-1_287_28" fill="white">
<path d="M20.7879 25.7842H50.9413H48.1613H49.1979H20.7879ZM22.0546 22.4508H66.1213L61.6879 17.1308C61.4724 16.9175 61.2257 16.7464 60.9479 16.6175C60.6701 16.4886 60.3813 16.4242 60.0813 16.4242H28.0946C27.7968 16.4242 27.5079 16.4886 27.2279 16.6175C26.9479 16.7464 26.7035 16.9175 26.4946 17.1308L22.0546 22.4508ZM37.4546 42.9642L44.1213 39.6308L50.7879 42.9642V25.7842H37.4546V42.9642ZM50.8879 66.4242H22.8446C21.3624 66.4242 20.0946 65.8964 19.0413 64.8408C17.9879 63.7853 17.459 62.5197 17.4546 61.0442V24.7108C17.4546 24.0842 17.5579 23.4786 17.7646 22.8942C17.9713 22.3097 18.2824 21.7764 18.6979 21.2942L23.8913 15.0608C24.3735 14.4253 24.9768 13.9386 25.7013 13.6008C26.4257 13.263 27.2057 13.093 28.0413 13.0908H60.0746C60.9101 13.0908 61.6979 13.2608 62.4379 13.6008C63.1779 13.9386 63.7946 14.4253 64.2879 15.0608L69.5446 21.4242C69.9602 21.9242 70.2713 22.4708 70.4779 23.0642C70.6846 23.6553 70.7879 24.2686 70.7879 24.9042V37.4575C70.3301 37.3242 69.8446 37.2319 69.3313 37.1808C68.8201 37.1297 68.3235 37.1042 67.8413 37.1042H67.4546V25.7842H54.1213V42.9575C53.5013 43.3842 52.8857 43.9575 52.2746 44.6775C51.6635 45.3975 51.219 46.1019 50.9413 46.7908L44.1213 43.4108L34.1213 48.4108V25.7842H20.7879V61.0408C20.7879 61.6386 20.9801 62.1297 21.3646 62.5142C21.749 62.8986 22.2413 63.0908 22.8413 63.0908H49.1979C49.3979 63.713 49.6468 64.2953 49.9446 64.8375C50.2424 65.3775 50.5579 65.9064 50.8913 66.4242M66.1079 68.4108V58.4108H56.1079V55.0775H66.1079V45.0775H69.4413V55.0775H79.4413V58.4108H69.4413V68.4108H66.1079Z"/>
</mask>
<path d="M20.7879 25.7842H50.9413H48.1613H49.1979H20.7879ZM22.0546 22.4508H66.1213L61.6879 17.1308C61.4724 16.9175 61.2257 16.7464 60.9479 16.6175C60.6701 16.4886 60.3813 16.4242 60.0813 16.4242H28.0946C27.7968 16.4242 27.5079 16.4886 27.2279 16.6175C26.9479 16.7464 26.7035 16.9175 26.4946 17.1308L22.0546 22.4508ZM37.4546 42.9642L44.1213 39.6308L50.7879 42.9642V25.7842H37.4546V42.9642ZM50.8879 66.4242H22.8446C21.3624 66.4242 20.0946 65.8964 19.0413 64.8408C17.9879 63.7853 17.459 62.5197 17.4546 61.0442V24.7108C17.4546 24.0842 17.5579 23.4786 17.7646 22.8942C17.9713 22.3097 18.2824 21.7764 18.6979 21.2942L23.8913 15.0608C24.3735 14.4253 24.9768 13.9386 25.7013 13.6008C26.4257 13.263 27.2057 13.093 28.0413 13.0908H60.0746C60.9101 13.0908 61.6979 13.2608 62.4379 13.6008C63.1779 13.9386 63.7946 14.4253 64.2879 15.0608L69.5446 21.4242C69.9602 21.9242 70.2713 22.4708 70.4779 23.0642C70.6846 23.6553 70.7879 24.2686 70.7879 24.9042V37.4575C70.3301 37.3242 69.8446 37.2319 69.3313 37.1808C68.8201 37.1297 68.3235 37.1042 67.8413 37.1042H67.4546V25.7842H54.1213V42.9575C53.5013 43.3842 52.8857 43.9575 52.2746 44.6775C51.6635 45.3975 51.219 46.1019 50.9413 46.7908L44.1213 43.4108L34.1213 48.4108V25.7842H20.7879V61.0408C20.7879 61.6386 20.9801 62.1297 21.3646 62.5142C21.749 62.8986 22.2413 63.0908 22.8413 63.0908H49.1979C49.3979 63.713 49.6468 64.2953 49.9446 64.8375C50.2424 65.3775 50.5579 65.9064 50.8913 66.4242M66.1079 68.4108V58.4108H56.1079V55.0775H66.1079V45.0775H69.4413V55.0775H79.4413V58.4108H69.4413V68.4108H66.1079Z" fill="#004220"/>
<path d="M54.1213 25.7842V21.7842H50.1213V25.7842H54.1213ZM67.4546 25.7842H71.4546V21.7842H67.4546V25.7842ZM20.7879 25.7842V21.7842H16.7879V25.7842H20.7879ZM22.0546 22.4508L18.9836 19.8878L13.5062 26.4508H22.0546V22.4508ZM66.1213 22.4508V26.4508H74.6614L69.1941 19.8901L66.1213 22.4508ZM61.6879 17.1308L64.7608 14.5701L64.638 14.4227L64.5017 14.2878L61.6879 17.1308ZM26.4946 17.1308L23.6365 14.3323L23.5254 14.4458L23.4236 14.5678L26.4946 17.1308ZM37.4546 42.9642H33.4546V49.4363L39.2434 46.5419L37.4546 42.9642ZM44.1213 39.6308L45.9101 36.0531L44.1213 35.1587L42.3324 36.0531L44.1213 39.6308ZM50.7879 42.9642L48.9991 46.5419L54.7879 49.4363V42.9642H50.7879ZM50.7879 25.7842H54.7879V21.7842H50.7879V25.7842ZM37.4546 25.7842V21.7842H33.4546V25.7842H37.4546ZM17.4546 61.0442H13.4546L13.4546 61.0562L17.4546 61.0442ZM18.6979 21.2942L21.728 23.9054L21.7498 23.8801L21.7711 23.8546L18.6979 21.2942ZM23.8913 15.0608L26.9644 17.6212L27.0227 17.5512L27.0778 17.4786L23.8913 15.0608ZM28.0413 13.0908V9.09081L28.0306 9.09083L28.0413 13.0908ZM62.4379 13.6008L60.7679 17.2355L60.777 17.2397L62.4379 13.6008ZM64.2879 15.0608L61.1281 17.5135L61.1654 17.5615L61.2041 17.6083L64.2879 15.0608ZM69.5446 21.4242L66.4607 23.9717L66.4684 23.9809L69.5446 21.4242ZM70.4779 23.0642L66.7005 24.3799L66.702 24.3843L70.4779 23.0642ZM70.7879 37.4575L69.6694 41.2979L74.7879 42.7887V37.4575H70.7879ZM69.3313 37.1808L68.9332 41.161L68.935 41.1611L69.3313 37.1808ZM67.4546 37.1042H63.4546V41.1042H67.4546V37.1042ZM54.1213 42.9575L56.3889 46.2526L58.1213 45.0604V42.9575H54.1213ZM50.9413 46.7908L49.165 50.3748L53.0356 52.293L54.651 48.2867L50.9413 46.7908ZM44.1213 43.4108L45.8975 39.8268L44.1134 38.9426L42.3324 39.8331L44.1213 43.4108ZM34.1213 48.4108H30.1213V54.883L35.9101 51.9885L34.1213 48.4108ZM34.1213 25.7842H38.1213V21.7842H34.1213V25.7842ZM22.8413 63.0908V59.0908V63.0908ZM49.1979 63.0908L53.006 61.8668L52.1138 59.0908H49.1979V63.0908ZM49.9446 64.8375L46.4385 66.763L46.4419 66.769L49.9446 64.8375ZM66.1079 68.4108H62.1079V72.4108H66.1079V68.4108ZM66.1079 58.4108H70.1079V54.4108H66.1079V58.4108ZM56.1079 58.4108H52.1079V62.4108H56.1079V58.4108ZM56.1079 55.0775V51.0775H52.1079V55.0775H56.1079ZM66.1079 55.0775V59.0775H70.1079V55.0775H66.1079ZM66.1079 45.0775V41.0775H62.1079V45.0775H66.1079ZM69.4413 45.0775H73.4413V41.0775H69.4413V45.0775ZM69.4413 55.0775H65.4413V59.0775H69.4413V55.0775ZM79.4413 55.0775H83.4413V51.0775H79.4413V55.0775ZM79.4413 58.4108V62.4108H83.4413V58.4108H79.4413ZM69.4413 58.4108V54.4108H65.4413V58.4108H69.4413ZM69.4413 68.4108V72.4108H73.4413V68.4108H69.4413ZM54.1213 25.7842V29.7842H67.4546V25.7842V21.7842H54.1213V25.7842ZM20.7879 25.7842V29.7842H50.9413V25.7842V21.7842H20.7879V25.7842ZM50.9413 25.7842V21.7842H48.1613V25.7842V29.7842H50.9413V25.7842ZM48.1613 25.7842V29.7842H49.1979V25.7842V21.7842H48.1613V25.7842ZM49.1979 25.7842V21.7842H20.7879V25.7842V29.7842H49.1979V25.7842ZM22.0546 22.4508V26.4508H66.1213V22.4508V18.4508H22.0546V22.4508ZM66.1213 22.4508L69.1941 19.8901L64.7608 14.5701L61.6879 17.1308L58.615 19.6916L63.0484 25.0116L66.1213 22.4508ZM61.6879 17.1308L64.5017 14.2878C63.9543 13.7461 63.3244 13.3105 62.6315 12.9891L60.9479 16.6175L59.2643 20.2459C59.127 20.1822 58.9904 20.0889 58.8742 19.9739L61.6879 17.1308ZM60.9479 16.6175L62.6315 12.9891C61.8375 12.6206 60.9751 12.4242 60.0813 12.4242V16.4242V20.4242C59.7874 20.4242 59.5028 20.3566 59.2643 20.2459L60.9479 16.6175ZM60.0813 16.4242V12.4242H28.0946V16.4242V20.4242H60.0813V16.4242ZM28.0946 16.4242V12.4242C27.1989 12.4242 26.341 12.6223 25.5554 12.984L27.2279 16.6175L28.9005 20.251C28.6749 20.3549 28.3947 20.4242 28.0946 20.4242V16.4242ZM27.2279 16.6175L25.5554 12.984C24.8472 13.3099 24.1975 13.7595 23.6365 14.3323L26.4946 17.1308L29.3526 19.9293C29.2095 20.0755 29.0486 20.1828 28.9005 20.251L27.2279 16.6175ZM26.4946 17.1308L23.4236 14.5678L18.9836 19.8878L22.0546 22.4508L25.1256 25.0138L29.5656 19.6938L26.4946 17.1308ZM37.4546 42.9642L39.2434 46.5419L45.9101 43.2085L44.1213 39.6308L42.3324 36.0531L35.6657 39.3864L37.4546 42.9642ZM44.1213 39.6308L42.3324 43.2085L48.9991 46.5419L50.7879 42.9642L52.5768 39.3864L45.9101 36.0531L44.1213 39.6308ZM50.7879 42.9642H54.7879V25.7842H50.7879H46.7879V42.9642H50.7879ZM50.7879 25.7842V21.7842H37.4546V25.7842V29.7842H50.7879V25.7842ZM37.4546 25.7842H33.4546V42.9642H37.4546H41.4546V25.7842H37.4546ZM50.8879 66.4242V62.4242H22.8446V66.4242V70.4242H50.8879V66.4242ZM22.8446 66.4242V62.4242C22.4319 62.4242 22.1807 62.3241 21.8727 62.0154L19.0413 64.8408L16.2099 67.6663C18.0084 69.4686 20.2928 70.4242 22.8446 70.4242V66.4242ZM19.0413 64.8408L21.8727 62.0154C21.5558 61.6979 21.4558 61.4399 21.4546 61.0321L17.4546 61.0442L13.4546 61.0562C13.4623 63.5995 14.42 65.8727 16.2099 67.6663L19.0413 64.8408ZM17.4546 61.0442H21.4546V24.7108H17.4546H13.4546V61.0442H17.4546ZM17.4546 24.7108H21.4546C21.4546 24.5334 21.4822 24.3791 21.5358 24.2277L17.7646 22.8942L13.9934 21.5606C13.6336 22.5781 13.4546 23.6349 13.4546 24.7108H17.4546ZM17.7646 22.8942L21.5358 24.2277C21.5724 24.1241 21.6278 24.0217 21.728 23.9054L18.6979 21.2942L15.6678 18.6829C14.9369 19.5311 14.3701 20.4953 13.9934 21.5606L17.7646 22.8942ZM18.6979 21.2942L21.7711 23.8546L26.9644 17.6212L23.8913 15.0608L20.8181 12.5004L15.6248 18.7337L18.6979 21.2942ZM23.8913 15.0608L27.0778 17.4786C27.1661 17.3623 27.2555 17.2896 27.3916 17.2261L25.7013 13.6008L24.0109 9.97552C22.6982 10.5876 21.5808 11.4883 20.7047 12.643L23.8913 15.0608ZM25.7013 13.6008L27.3916 17.2261C27.566 17.1448 27.7698 17.0916 28.0519 17.0908L28.0413 13.0908L28.0306 9.09083C26.6416 9.09453 25.2854 9.38131 24.0109 9.97552L25.7013 13.6008ZM28.0413 13.0908V17.0908H60.0746V13.0908V9.09082H28.0413V13.0908ZM60.0746 13.0908V17.0908C60.3491 17.0908 60.5656 17.1426 60.7679 17.2355L62.4379 13.6008L64.1079 9.96611C62.8302 9.37907 61.4712 9.09082 60.0746 9.09082V13.0908ZM62.4379 13.6008L60.777 17.2397C60.9356 17.3121 61.0357 17.3945 61.1281 17.5135L64.2879 15.0608L67.4477 12.6081C66.5534 11.456 65.4203 10.5651 64.0989 9.96198L62.4379 13.6008ZM64.2879 15.0608L61.2041 17.6083L66.4608 23.9717L69.5446 21.4242L72.6284 18.8766L67.3718 12.5133L64.2879 15.0608ZM69.5446 21.4242L66.4684 23.9809C66.5886 24.1255 66.6568 24.2545 66.7005 24.3799L70.4779 23.0642L74.2553 21.7484C73.8857 20.6871 73.3317 19.7228 72.6208 18.8675L69.5446 21.4242ZM70.4779 23.0642L66.702 24.3843C66.7581 24.5447 66.7879 24.7113 66.7879 24.9042H70.7879H74.7879C74.7879 23.8259 74.6111 22.7658 74.2538 21.744L70.4779 23.0642ZM70.7879 24.9042H66.7879V37.4575H70.7879H74.7879V24.9042H70.7879ZM70.7879 37.4575L71.9065 33.6171C71.1945 33.4097 70.4657 33.274 69.7276 33.2005L69.3313 37.1808L68.935 41.1611C69.2235 41.1899 69.4658 41.2386 69.6694 41.2979L70.7879 37.4575ZM69.3313 37.1808L69.7293 33.2007C69.0944 33.1372 68.4647 33.1042 67.8413 33.1042V37.1042V41.1042C68.1823 41.1042 68.5459 41.1222 68.9332 41.161L69.3313 37.1808ZM67.8413 37.1042V33.1042H67.4546V37.1042V41.1042H67.8413V37.1042ZM67.4546 37.1042H71.4546V25.7842H67.4546H63.4546V37.1042H67.4546ZM54.1213 25.7842H50.1213V42.9575H54.1213H58.1213V25.7842H54.1213ZM54.1213 42.9575L51.8536 39.6624C50.8801 40.3323 50.0092 41.1651 49.225 42.0891L52.2746 44.6775L55.3242 47.2659C55.7622 46.7499 56.1224 46.436 56.3889 46.2526L54.1213 42.9575ZM52.2746 44.6775L49.225 42.0891C48.4083 43.0513 47.7061 44.1179 47.2315 45.2949L50.9413 46.7908L54.651 48.2867C54.732 48.0859 54.9187 47.7437 55.3242 47.2659L52.2746 44.6775ZM50.9413 46.7908L52.7175 43.2068L45.8975 39.8268L44.1213 43.4108L42.345 46.9948L49.165 50.3748L50.9413 46.7908ZM44.1213 43.4108L42.3324 39.8331L32.3324 44.8331L34.1213 48.4108L35.9101 51.9885L45.9101 46.9885L44.1213 43.4108ZM34.1213 48.4108H38.1213V25.7842H34.1213H30.1213V48.4108H34.1213ZM34.1213 25.7842V21.7842H20.7879V25.7842V29.7842H34.1213V25.7842ZM20.7879 25.7842H16.7879V61.0408H20.7879H24.7879V25.7842H20.7879ZM20.7879 61.0408H16.7879C16.7879 62.5835 17.3234 64.1298 18.5362 65.3426L21.3646 62.5142L24.193 59.6857C24.3786 59.8713 24.5457 60.1153 24.6569 60.3996C24.7653 60.6764 24.7879 60.9069 24.7879 61.0408H20.7879ZM21.3646 62.5142L18.5362 65.3426C19.7519 66.5584 21.301 67.0908 22.8413 67.0908V63.0908V59.0908C22.9722 59.0908 23.201 59.1129 23.4771 59.2207C23.761 59.3315 24.006 59.4987 24.193 59.6857L21.3646 62.5142ZM22.8413 63.0908V67.0908H49.1979V63.0908V59.0908H22.8413V63.0908ZM49.1979 63.0908L45.3898 64.3149C45.6635 65.1664 46.0112 65.9849 46.4385 66.763L49.9446 64.8375L53.4507 62.912C53.2824 62.6057 53.1323 62.2597 53.006 61.8668L49.1979 63.0908ZM49.9446 64.8375L46.4419 66.769C46.7834 67.3884 47.1454 67.9952 47.528 68.5894L50.8913 66.4242L54.2546 64.2589C53.9704 63.8175 53.7013 63.3666 53.4473 62.9059L49.9446 64.8375ZM66.1079 68.4108H70.1079V58.4108H66.1079H62.1079V68.4108H66.1079ZM66.1079 58.4108V54.4108H56.1079V58.4108V62.4108H66.1079V58.4108ZM56.1079 58.4108H60.1079V55.0775H56.1079H52.1079V58.4108H56.1079ZM56.1079 55.0775V59.0775H66.1079V55.0775V51.0775H56.1079V55.0775ZM66.1079 55.0775H70.1079V45.0775H66.1079H62.1079V55.0775H66.1079ZM66.1079 45.0775V49.0775H69.4413V45.0775V41.0775H66.1079V45.0775ZM69.4413 45.0775H65.4413V55.0775H69.4413H73.4413V45.0775H69.4413ZM69.4413 55.0775V59.0775H79.4413V55.0775V51.0775H69.4413V55.0775ZM79.4413 55.0775H75.4413V58.4108H79.4413H83.4413V55.0775H79.4413ZM79.4413 58.4108V54.4108H69.4413V58.4108V62.4108H79.4413V58.4108ZM69.4413 58.4108H65.4413V68.4108H69.4413H73.4413V58.4108H69.4413ZM69.4413 68.4108V64.4108H66.1079V68.4108V72.4108H69.4413V68.4108Z" fill="#004220" mask="url(#path-1-inside-1_287_28)"/>
</svg>
