<svg width="50" height="50" viewBox="0 0 50 50" fill="none" xmlns="http://www.w3.org/2000/svg">
<path d="M12.4998 39.5835H20.1915V29.0064C20.1915 28.53 20.3533 28.1307 20.6769 27.8085C20.9991 27.4849 21.3984 27.3231 21.8748 27.3231H28.1248C28.6012 27.3231 29.0012 27.4849 29.3248 27.8085C29.6471 28.1307 29.8082 28.53 29.8082 29.0064V39.5835H37.4998V21.4752C37.4998 21.2613 37.4533 21.0668 37.3603 20.8918C37.2672 20.7168 37.1401 20.5641 36.979 20.4335L25.7623 11.9793C25.5484 11.7932 25.2943 11.7002 24.9998 11.7002C24.7054 11.7002 24.4519 11.7932 24.2394 11.9793L13.0207 20.4335C12.8609 20.5668 12.7339 20.7196 12.6394 20.8918C12.545 21.0641 12.4984 21.2585 12.4998 21.4752V39.5835ZM10.4165 39.5835V21.4752C10.4165 20.9418 10.5359 20.437 10.7748 19.9606C11.0137 19.4842 11.3429 19.0918 11.7623 18.7835L22.9811 10.2877C23.5686 9.83905 24.2394 9.61475 24.9936 9.61475C25.7478 9.61475 26.4228 9.83905 27.0186 10.2877L38.2373 18.7814C38.6582 19.0897 38.9873 19.4828 39.2248 19.9606C39.4637 20.437 39.5832 20.9418 39.5832 21.4752V39.5835C39.5832 40.1418 39.3755 40.6286 38.9603 41.0439C38.545 41.4592 38.0582 41.6668 37.4998 41.6668H29.4082C28.9304 41.6668 28.5304 41.5057 28.2082 41.1835C27.8859 40.8599 27.7248 40.4599 27.7248 39.9835V29.4085H22.2748V39.9835C22.2748 40.4613 22.1137 40.8613 21.7915 41.1835C21.4693 41.5057 21.07 41.6668 20.5936 41.6668H12.4998C11.9415 41.6668 11.4547 41.4592 11.0394 41.0439C10.6241 40.6286 10.4165 40.1418 10.4165 39.5835Z" fill="#004220"/>
</svg>
