<svg width="40" height="40" viewBox="0 0 40 40" fill="none" xmlns="http://www.w3.org/2000/svg">
<path d="M5 21.6665C11 8.33317 29 8.33317 35 21.6665" stroke="#004220" stroke-width="1.5" stroke-linecap="round" stroke-linejoin="round"/>
<path d="M20 28.333C19.3434 28.333 18.6932 28.2037 18.0866 27.9524C17.48 27.7011 16.9288 27.3328 16.4645 26.8685C16.0002 26.4042 15.6319 25.8531 15.3806 25.2464C15.1293 24.6398 15 23.9896 15 23.333C15 22.6764 15.1293 22.0262 15.3806 21.4196C15.6319 20.813 16.0002 20.2618 16.4645 19.7975C16.9288 19.3332 17.48 18.9649 18.0866 18.7136C18.6932 18.4623 19.3434 18.333 20 18.333C21.3261 18.333 22.5979 18.8598 23.5355 19.7975C24.4732 20.7352 25 22.0069 25 23.333C25 24.6591 24.4732 25.9309 23.5355 26.8685C22.5979 27.8062 21.3261 28.333 20 28.333Z" stroke="#004220" stroke-width="1.5" stroke-linecap="round" stroke-linejoin="round"/>
</svg>
