<svg width="25" height="24" viewBox="0 0 25 24" fill="none" xmlns="http://www.w3.org/2000/svg">
<path d="M22.908 14.829H19.636V9.083C19.6365 8.83031 19.5484 8.58543 19.387 8.391L19.388 8.393L19.385 8.387C19.3651 8.36303 19.3441 8.34001 19.322 8.318L19.313 8.309L19.285 8.28L11.319 0.314C11.296 0.291863 11.272 0.270839 11.247 0.251L11.221 0.231L11.168 0.191L11.142 0.172L11.084 0.137L11.06 0.123C11.034 0.109 11.007 0.096 10.979 0.084L10.945 0.069L10.89 0.049L10.851 0.037L10.788 0.021L10.759 0.014C10.7283 0.00866667 10.6973 0.004 10.666 0H1.091C0.491 0 0.004 0.484 0 1.083V22.901C0 23.504 0.489 23.992 1.091 23.992H18.545C19.148 23.992 19.636 23.503 19.636 22.901V17.01H22.94C23.2294 17.01 23.5069 16.8951 23.7115 16.6905C23.9161 16.4859 24.031 16.2084 24.031 15.919C24.031 15.6296 23.9161 15.3521 23.7115 15.1475C23.5069 14.9429 23.2294 14.828 22.94 14.828L22.908 14.829ZM11.635 3.716L15.91 7.992H11.635V3.716ZM17.453 21.809H2.181V2.173H9.454V9.082C9.454 9.685 9.943 10.173 10.545 10.173H17.454V14.828H13.178L14.043 13.963C14.2332 13.7557 14.3359 13.483 14.3298 13.2018C14.3237 12.9206 14.2092 12.6526 14.0103 12.4537C13.8113 12.2549 13.5432 12.1406 13.262 12.1347C12.9808 12.1288 12.7081 12.2317 12.501 12.422L12.502 12.421L9.764 15.161L9.704 15.227L9.684 15.253L9.639 15.313L9.625 15.335L9.583 15.404L9.575 15.42C9.56113 15.4464 9.54845 15.4734 9.537 15.501V15.512L9.505 15.598V15.61C9.49591 15.64 9.48824 15.6703 9.482 15.701V15.728C9.47733 15.754 9.47333 15.7803 9.47 15.807C9.46176 15.8808 9.46176 15.9552 9.47 16.029V16.024C9.47 16.051 9.477 16.076 9.482 16.103V16.13C9.48867 16.1613 9.49633 16.1923 9.505 16.223V16.234C9.51455 16.2645 9.52557 16.2945 9.538 16.324V16.334C9.55 16.3613 9.563 16.3883 9.577 16.415L9.585 16.43L9.627 16.5L9.64 16.521L9.686 16.584L9.704 16.608C9.72467 16.6333 9.74667 16.658 9.77 16.682L9.775 16.688L12.502 19.415C12.6015 19.5235 12.7219 19.6107 12.856 19.6714C12.9901 19.7321 13.1351 19.765 13.2823 19.7682C13.4294 19.7714 13.5757 19.7448 13.7123 19.6899C13.8489 19.6351 13.973 19.5532 14.0771 19.4492C14.1812 19.3451 14.2632 19.2211 14.3181 19.0845C14.3731 18.9479 14.3998 18.8017 14.3967 18.6545C14.3936 18.5073 14.3607 18.3623 14.3001 18.2282C14.2395 18.0941 14.1524 17.9736 14.044 17.874L14.043 17.873L13.178 17.008H17.453V21.809Z" fill="black" fill-opacity="0.47"/>
</svg>
