<svg width="70" height="70" viewBox="0 0 70 70" fill="none" xmlns="http://www.w3.org/2000/svg">
<path d="M20.4167 20.4166H17.5001C15.953 20.4166 14.4693 21.0312 13.3753 22.1252C12.2813 23.2191 11.6667 24.7029 11.6667 26.25V52.5C11.6667 54.0471 12.2813 55.5308 13.3753 56.6247C14.4693 57.7187 15.953 58.3333 17.5001 58.3333H43.7501C45.2972 58.3333 46.7809 57.7187 47.8749 56.6247C48.9688 55.5308 49.5834 54.0471 49.5834 52.5V49.5833" stroke="#004220" stroke-width="4" stroke-linecap="round" stroke-linejoin="round"/>
<path d="M46.6667 14.5833L55.4167 23.3333M59.4563 19.2062C60.605 18.0575 61.2503 16.4995 61.2503 14.8749C61.2503 13.2504 60.605 11.6924 59.4563 10.5437C58.3075 9.39498 56.7495 8.74963 55.125 8.74963C53.5005 8.74963 51.9425 9.39498 50.7938 10.5437L26.25 34.9999V43.7499H35L59.4563 19.2062Z" stroke="#004220" stroke-width="4" stroke-linecap="round" stroke-linejoin="round"/>
</svg>
