<svg width="75" height="75" viewBox="0 0 75 75" fill="none" xmlns="http://www.w3.org/2000/svg">
<path d="M37.125 60.3156C41.0312 60.3156 44.3521 58.949 47.0875 56.2156C49.8229 53.4823 51.1896 50.1615 51.1875 46.2531C51.1854 42.3448 49.8187 39.025 47.0875 36.2937C44.3563 33.5625 41.0354 32.1948 37.125 32.1906C33.2146 32.1865 29.8948 33.5542 27.1656 36.2937C24.4365 39.0333 23.0688 42.3531 23.0625 46.2531C23.0562 50.1531 24.424 53.474 27.1656 56.2156C29.9073 58.9573 33.2271 60.324 37.125 60.3156ZM28.1063 31.675C29.1063 31.0208 30.1719 30.4948 31.3031 30.0969C32.4365 29.699 33.6021 29.4073 34.8 29.2219L27.6875 15.1219H19.875L28.1063 31.675ZM22.2094 56.9875C22.2448 56.6375 22.326 56.2521 22.4531 55.8312C22.5781 55.4062 22.7615 54.9583 23.0031 54.4875C22.0406 52.9312 21.3469 51.251 20.9219 49.4469C20.4969 47.6427 20.3854 45.7854 20.5875 43.875C20.5875 42.3125 20.8583 40.8292 21.4 39.425C21.9396 38.0229 22.6896 36.7615 23.65 35.6406C22.9063 35.7677 22.2521 36.0344 21.6875 36.4406C21.1229 36.849 20.7198 37.3354 20.4781 37.9C18.1552 38.4646 16.3448 39.7719 15.0469 41.8219C13.749 43.8719 13.3521 46.1427 13.8562 48.6344C13.8562 50.9573 14.6677 52.9302 16.2906 54.5531C17.9135 56.176 19.8865 56.9896 22.2094 56.9875ZM52.0406 56.9844C54.8698 56.8177 57.2583 55.7094 59.2062 53.6594C61.1521 51.6115 62.125 49.1427 62.125 46.2531C62.125 43.3635 61.151 40.8948 59.2031 38.8469C57.2552 36.799 54.8677 35.6896 52.0406 35.5187C51.801 35.5187 51.5615 35.5292 51.3219 35.55C51.0802 35.5708 50.8385 35.601 50.5969 35.6406C51.7635 37.1115 52.674 38.749 53.3281 40.5531C53.9844 42.3573 54.3125 44.2573 54.3125 46.2531C54.3125 48.249 53.9854 50.149 53.3313 51.9531C52.675 53.7573 51.7646 55.3948 50.6 56.8656C50.8396 56.9073 51.0792 56.9375 51.3187 56.9562C51.5604 56.9771 51.801 56.9844 52.0406 56.9844ZM37.125 63.4406C35.1229 63.4406 33.2313 63.1312 31.45 62.5125C29.6688 61.8937 28.051 61.0031 26.5969 59.8406C26.0469 60.026 25.4677 60.151 24.8594 60.2156C24.251 60.2802 23.626 60.3135 22.9844 60.3156C19.126 60.3156 15.8312 58.95 13.1 56.2187C10.3687 53.4875 9.00208 50.1917 9 46.3312C9 42.5208 10.3302 39.2615 12.9906 36.5531C15.651 33.8448 18.874 32.449 22.6594 32.3656C23.101 32.3656 23.5219 32.3958 23.9219 32.4562C24.3219 32.5146 24.7219 32.5844 25.1219 32.6656L16.6188 15.6281C16.1771 14.7865 16.2063 13.9708 16.7063 13.1812C17.2042 12.3937 17.9323 12 18.8906 12H26.5625C27.5208 12 28.3917 12.2521 29.175 12.7563C29.9583 13.2604 30.576 13.9333 31.0281 14.775L37.125 26.9L43.2188 14.775C43.6708 13.9333 44.2885 13.2604 45.0719 12.7563C45.8552 12.2521 46.726 12 47.6844 12H55.3625C56.3208 12 57.05 12.3937 57.55 13.1812C58.0479 13.9729 58.076 14.7885 57.6344 15.6281L49.2656 32.45C49.626 32.3687 49.9969 32.3083 50.3781 32.2687C50.7573 32.2271 51.1479 32.2062 51.55 32.2062C55.375 32.3042 58.6146 33.7073 61.2687 36.4156C63.9229 39.124 65.25 42.4031 65.25 46.2531C65.25 50.1635 63.8844 53.4854 61.1531 56.2187C58.4219 58.9521 55.1 60.3177 51.1875 60.3156C50.5583 60.3156 49.9469 60.2823 49.3531 60.2156C48.7594 60.149 48.1865 60.024 47.6344 59.8406C46.1823 60.9635 44.5677 61.8438 42.7906 62.4813C41.0135 63.1188 39.125 63.4385 37.125 63.4406ZM37.125 49.6906L33.7781 52.2219C33.5052 52.401 33.2531 52.4042 33.0219 52.2312C32.7906 52.0583 32.726 51.8292 32.8281 51.5438L34.0719 47.375L30.7844 45.0031C30.5135 44.824 30.4302 44.5948 30.5344 44.3156C30.6385 44.0365 30.8385 43.8969 31.1344 43.8969H35.2219L36.525 39.5406C36.6292 39.2573 36.8292 39.1156 37.125 39.1156C37.4208 39.1156 37.6208 39.2573 37.725 39.5406L39.0281 43.8969H43.1156C43.4115 43.8969 43.6115 44.0365 43.7156 44.3156C43.8198 44.5948 43.7365 44.824 43.4656 45.0031L40.1781 47.3781L41.4219 51.5406C41.526 51.826 41.4625 52.0552 41.2313 52.2281C41 52.401 40.7469 52.399 40.4719 52.2219L37.125 49.6906ZM46.1469 31.675L54.45 15.125H46.5625L39.7406 28.6437L40.0844 29.3312C41.174 29.5396 42.2281 29.8312 43.2469 30.2062C44.2635 30.5812 45.2302 31.0708 46.1469 31.675Z" fill="#004220"/>
</svg>
