<svg width="50" height="50" viewBox="0 0 50 50" fill="none" xmlns="http://www.w3.org/2000/svg">
<path d="M7.27205 39.9997H50V0H7.15413C5.25861 0.00538341 3.44247 0.672908 2.10213 1.85687C0.761788 3.04083 0.00609446 4.64508 0 6.31944V43.1508H0.00129736C0.00129736 43.1665 0 43.182 0 43.198C0 46.8854 3.27618 50 7.15413 50H50V46.6664H7.15413C5.38491 46.6664 3.77358 45.0132 3.77358 43.1976C3.77358 41.4643 5.37559 39.9997 7.27205 39.9997ZM37.7358 3.368V21.3696L32.0283 16.9435L26.4151 21.3436V3.368H37.7358ZM22.6415 3.33331V25.8332H26.3728L32.042 21.3896L37.7718 25.8332H41.5094V3.33331H46.2264V36.6664H11.3302L11.3208 3.33331H22.6415ZM7.15413 3.33331H7.54717L7.55613 36.6664H7.27158C6.04456 36.6667 4.83885 36.9497 3.77358 37.4876V6.34548C3.7707 5.55033 4.125 4.78664 4.75875 4.22194C5.3925 3.65725 6.25396 3.33767 7.15413 3.33331Z" fill="#004220"/>
</svg>
