<svg width="50" height="50" viewBox="0 0 50 50" fill="none" xmlns="http://www.w3.org/2000/svg">
<path d="M13.7031 50V46.875H23.4375V35.1437C20.6854 34.6521 18.2771 33.501 16.2125 31.6906C14.1479 29.8802 12.726 27.6396 11.9469 24.9687C8.64271 24.5792 5.825 23.224 3.49375 20.9031C1.1625 18.5823 -0.00208054 15.7812 2.79018e-06 12.5V9.375C2.79018e-06 8.5375 0.31146 7.80729 0.934377 7.18437C1.55729 6.56146 2.2875 6.25 3.125 6.25H11.4188V0H38.5813V6.25H46.875C47.7125 6.25 48.4427 6.56146 49.0656 7.18437C49.6885 7.80729 50 8.5375 50 9.375V12.5C50 15.7771 48.8354 18.5771 46.5063 20.9C44.1771 23.2229 41.3594 24.5771 38.0531 24.9625C37.276 27.6396 35.8552 29.8823 33.7906 31.6906C31.726 33.499 29.3167 34.65 26.5625 35.1437V46.875H36.2969V50H13.7031ZM11.4188 21.6125V9.375H3.125V12.5C3.125 14.8792 3.91875 16.924 5.50625 18.6344C7.09375 20.3448 9.06458 21.3375 11.4188 21.6125ZM25 32.0906C27.8854 32.0906 30.3292 31.0896 32.3312 29.0875C34.3354 27.0833 35.3375 24.6385 35.3375 21.7531V3.125H14.6625V21.7562C14.6625 24.6396 15.6646 27.0833 17.6688 29.0875C19.6708 31.0896 22.1146 32.0906 25 32.0906ZM38.5813 21.6094C40.9375 21.3344 42.9083 20.3427 44.4938 18.6344C46.0792 16.926 46.8729 14.8812 46.875 12.5V9.375H38.5813V21.6094Z" fill="#004220"/>
</svg>
