<svg width="70" height="70" viewBox="0 0 70 70" fill="none" xmlns="http://www.w3.org/2000/svg">
<g clip-path="url(#clip0_201_466)">
<path fill-rule="evenodd" clip-rule="evenodd" d="M7.865 7.865C7.9813 7.749 8.11932 7.65705 8.27117 7.59442C8.42303 7.53179 8.58574 7.49971 8.75 7.5H16.25C17.2446 7.5 18.1984 7.10491 18.9017 6.40165C19.6049 5.69839 20 4.74456 20 3.75C20 2.75544 19.6049 1.80161 18.9017 1.09835C18.1984 0.395088 17.2446 0 16.25 0L8.75 0C6.42936 0 4.20376 0.921872 2.56282 2.56282C0.921872 4.20376 0 6.42936 0 8.75L0 16.25C0 17.2446 0.395088 18.1984 1.09835 18.9017C1.80161 19.6049 2.75544 20 3.75 20C4.74456 20 5.69839 19.6049 6.40165 18.9017C7.10491 18.1984 7.5 17.2446 7.5 16.25V8.75C7.49971 8.58574 7.53179 8.42303 7.59442 8.27117C7.65705 8.11932 7.749 7.9813 7.865 7.865ZM70 53.75C70 52.7554 69.6049 51.8016 68.9016 51.0984C68.1984 50.3951 67.2446 50 66.25 50C65.2554 50 64.3016 50.3951 63.5984 51.0984C62.8951 51.8016 62.5 52.7554 62.5 53.75V61.25C62.5 61.5815 62.3683 61.8995 62.1339 62.1339C61.8995 62.3683 61.5815 62.5 61.25 62.5H53.75C52.7554 62.5 51.8016 62.8951 51.0984 63.5984C50.3951 64.3016 50 65.2554 50 66.25C50 67.2446 50.3951 68.1984 51.0984 68.9016C51.8016 69.6049 52.7554 70 53.75 70H61.25C63.5706 70 65.7962 69.0781 67.4372 67.4372C69.0781 65.7962 70 63.5706 70 61.25V53.75ZM3.75 50C4.74456 50 5.69839 50.3951 6.40165 51.0984C7.10491 51.8016 7.5 52.7554 7.5 53.75V61.25C7.5 61.5815 7.6317 61.8995 7.86612 62.1339C8.10054 62.3683 8.41848 62.5 8.75 62.5H16.25C17.2446 62.5 18.1984 62.8951 18.9017 63.5984C19.6049 64.3016 20 65.2554 20 66.25C20 67.2446 19.6049 68.1984 18.9017 68.9016C18.1984 69.6049 17.2446 70 16.25 70H8.75C6.42936 70 4.20376 69.0781 2.56282 67.4372C0.921872 65.7962 0 63.5706 0 61.25L0 53.75C0 52.7554 0.395088 51.8016 1.09835 51.0984C1.80161 50.3951 2.75544 50 3.75 50ZM53.75 0C52.7554 0 51.8016 0.395088 51.0984 1.09835C50.3951 1.80161 50 2.75544 50 3.75C50 4.74456 50.3951 5.69839 51.0984 6.40165C51.8016 7.10491 52.7554 7.5 53.75 7.5H61.25C61.5815 7.5 61.8995 7.6317 62.1339 7.86612C62.3683 8.10054 62.5 8.41848 62.5 8.75V16.25C62.5 17.2446 62.8951 18.1984 63.5984 18.9017C64.3016 19.6049 65.2554 20 66.25 20C67.2446 20 68.1984 19.6049 68.9016 18.9017C69.6049 18.1984 70 17.2446 70 16.25V8.75C70 6.42936 69.0781 4.20376 67.4372 2.56282C65.7962 0.921872 63.5706 0 61.25 0H53.75Z" fill="#004220"/>
<path fill-rule="evenodd" clip-rule="evenodd" d="M46.04 22.3001C46.04 25.2314 44.8755 28.0426 42.8028 30.1154C40.73 32.1881 37.9188 33.3526 34.9875 33.3526C32.0562 33.3526 29.2449 32.1881 27.1722 30.1154C25.0994 28.0426 23.935 25.2314 23.935 22.3001C23.935 19.3688 25.0994 16.5575 27.1722 14.4848C29.2449 12.412 32.0562 11.2476 34.9875 11.2476C37.9188 11.2476 40.73 12.412 42.8028 14.4848C44.8755 16.5575 46.04 19.3688 46.04 22.3001ZM14.275 53.2751C15.8508 49.0512 18.6798 45.4099 22.3831 42.8389C26.0863 40.268 30.4868 38.8902 34.995 38.8902C39.5032 38.8902 43.9037 40.268 47.6069 42.8389C51.3101 45.4099 54.1392 49.0512 55.715 53.2751C56.275 54.7701 55.085 56.2501 53.485 56.2501H16.505C14.905 56.2501 13.715 54.7701 14.275 53.2751Z" fill="#004220"/>
</g>
<defs>
<clipPath id="clip0_201_466">
<rect width="70" height="70" fill="white"/>
</clipPath>
</defs>
</svg>
