<svg width="80" height="80" viewBox="0 0 80 80" fill="none" xmlns="http://www.w3.org/2000/svg">
<path d="M59.9999 48.3337C63.6999 48.3337 67.0332 49.8337 69.4333 52.2337L73.3333 48.3337V61.667H59.9999L65.8999 55.767C64.6993 54.566 63.1605 53.7604 61.4894 53.4582C59.8184 53.156 58.0949 53.3715 56.5497 54.0759C55.0045 54.7803 53.7114 55.9399 52.8435 57.3996C51.9756 58.8592 51.5744 60.5492 51.6935 62.2432C51.8127 63.9372 52.4465 65.5543 53.5102 66.8781C54.5738 68.2019 56.0165 69.1692 57.6451 69.6503C59.2737 70.1315 61.0104 70.1036 62.6227 69.5704C64.235 69.0373 65.6459 68.0242 66.6666 66.667H72.3666C71.374 69.1328 69.6653 71.2445 67.461 72.7299C65.2568 74.2153 62.658 75.0061 59.9999 75.0003C52.6333 75.0003 46.6666 69.0337 46.6666 61.667C46.6666 54.3003 52.6333 48.3337 59.9999 48.3337ZM43.3333 30.0003H61.6666L43.3333 11.667V30.0003ZM19.9999 6.66699H46.6666L66.6666 26.667V40.567C64.9999 40.2003 63.3333 40.0003 61.6666 40.0003C55.9202 40.0003 50.4092 42.2831 46.3459 46.3463C42.2826 50.4096 39.9999 55.9206 39.9999 61.667C39.9999 65.967 41.2333 70.0003 43.3333 73.3337H19.9999C16.2666 73.3337 13.3333 70.3337 13.3333 66.667V13.3337C13.3333 9.63366 16.2999 6.66699 19.9999 6.66699Z" fill="#004220"/>
</svg>
