<svg width="90" height="90" viewBox="0 0 90 90" fill="none" xmlns="http://www.w3.org/2000/svg">
<path d="M81.4697 33.75H26.5556C25.3746 33.7497 24.2234 34.1212 23.2653 34.8118C22.3072 35.5023 21.5907 36.477 21.2175 37.5975L11.25 67.5V28.125H78.75C78.75 26.6332 78.1574 25.2024 77.1025 24.1475C76.0476 23.0926 74.6168 22.5 73.125 22.5H42.5362C41.2206 22.4994 39.9467 22.0376 38.9362 21.195L35.3137 18.18C34.3033 17.3374 33.0294 16.8756 31.7138 16.875H11.25C9.75816 16.875 8.32742 17.4676 7.27252 18.5225C6.21763 19.5774 5.625 21.0082 5.625 22.5V67.5C5.625 68.9918 6.21763 70.4226 7.27252 71.4775C8.32742 72.5324 9.75816 73.125 11.25 73.125H73.125L86.6391 41.5912C87.0058 40.7357 87.1545 39.8025 87.0718 38.8754C86.9892 37.9482 86.6777 37.0561 86.1654 36.279C85.653 35.5018 84.9558 34.864 84.1363 34.4226C83.3168 33.9812 82.4005 33.7501 81.4697 33.75Z" fill="#004220"/>
<path d="M59.0625 67.5C63.7224 67.5 67.5 63.7224 67.5 59.0625C67.5 54.4026 63.7224 50.625 59.0625 50.625C54.4026 50.625 50.625 54.4026 50.625 59.0625C50.625 63.7224 54.4026 67.5 59.0625 67.5Z" fill="white"/>
<path d="M59.0625 39.375C45.9563 39.375 32.7656 47.5594 28.125 59.0625C32.7656 70.5656 45.9563 78.75 59.0625 78.75C72.1688 78.75 85.3594 70.5656 90 59.0625C85.3594 47.5594 72.1688 39.375 59.0625 39.375ZM59.0625 73.125C56.2812 73.125 53.5624 72.3003 51.2498 70.755C48.9372 69.2098 47.1348 67.0136 46.0704 64.444C45.0061 61.8744 44.7276 59.0469 45.2702 56.319C45.8128 53.5912 47.1521 51.0855 49.1188 49.1188C51.0855 47.1521 53.5912 45.8128 56.319 45.2702C59.0469 44.7276 61.8744 45.0061 64.444 46.0704C67.0136 47.1348 69.2098 48.9372 70.755 51.2498C72.3003 53.5624 73.125 56.2812 73.125 59.0625C73.125 62.7921 71.6434 66.369 69.0062 69.0062C66.369 71.6434 62.7921 73.125 59.0625 73.125Z" fill="white"/>
</svg>
